<svg xmlns="http://www.w3.org/2000/svg" xmlns:xlink="http://www.w3.org/1999/xlink" width="500" zoomAndPan="magnify" viewBox="0 0 375 374.999991" height="500" preserveAspectRatio="xMidYMid meet" version="1.0"><defs><g/></defs><g fill="#ffffff" fill-opacity="1"><g transform="translate(95.33282, 204.621579)"><g><path d="M 52.5625 -30.125 L 52.5625 -18.453125 C 51.175781 -12.066406 48.132812 -7.226562 43.4375 -3.9375 C 38.738281 -0.65625 33.5 0.984375 27.71875 0.984375 C 20.457031 0.984375 14.269531 -1.734375 9.15625 -7.171875 C 4.050781 -12.609375 1.5 -19.175781 1.5 -26.875 C 1.5 -34.695312 4 -41.300781 9 -46.6875 C 14 -52.082031 20.238281 -54.78125 27.71875 -54.78125 C 36.457031 -54.78125 43.367188 -51.71875 48.453125 -45.59375 L 40.4375 -36.78125 C 37.5625 -41.394531 33.5625 -43.703125 28.4375 -43.703125 C 24.65625 -43.703125 21.425781 -42.054688 18.75 -38.765625 C 16.070312 -35.484375 14.734375 -31.519531 14.734375 -26.875 C 14.734375 -22.300781 16.070312 -18.394531 18.75 -15.15625 C 21.425781 -11.914062 24.65625 -10.296875 28.4375 -10.296875 C 31.5625 -10.296875 34.285156 -11.242188 36.609375 -13.140625 C 38.941406 -15.035156 40.109375 -17.546875 40.109375 -20.671875 L 27.71875 -20.671875 L 27.71875 -30.125 Z M 52.5625 -30.125 "/></g></g></g><g fill="#ffffff" fill-opacity="1"><g transform="translate(143.256056, 204.621579)"><g><path d="M 14.796875 -33.453125 L 14.796875 -17.546875 C 14.796875 -14.242188 15.296875 -11.894531 16.296875 -10.5 C 17.304688 -9.101562 19.003906 -8.40625 21.390625 -8.40625 C 23.785156 -8.40625 25.484375 -9.101562 26.484375 -10.5 C 27.484375 -11.894531 27.984375 -14.242188 27.984375 -17.546875 L 27.984375 -33.453125 L 39.515625 -33.453125 L 39.515625 -14.734375 C 39.515625 -9.171875 38.066406 -5.160156 35.171875 -2.703125 C 32.285156 -0.242188 27.691406 0.984375 21.390625 0.984375 C 15.085938 0.984375 10.488281 -0.242188 7.59375 -2.703125 C 4.707031 -5.160156 3.265625 -9.171875 3.265625 -14.734375 L 3.265625 -33.453125 Z M 14.796875 -33.453125 "/></g></g></g><g fill="#ffffff" fill-opacity="1"><g transform="translate(179.899171, 204.621579)"><g><path d="M 21.71875 -24.984375 C 19.539062 -24.984375 17.671875 -24.175781 16.109375 -22.5625 C 14.546875 -20.957031 13.765625 -19.023438 13.765625 -16.765625 C 13.765625 -14.453125 14.546875 -12.492188 16.109375 -10.890625 C 17.671875 -9.285156 19.539062 -8.484375 21.71875 -8.484375 C 22.757812 -8.484375 23.75 -8.613281 24.6875 -8.875 C 25.625 -9.132812 26.304688 -9.394531 26.734375 -9.65625 L 27.328125 -10.046875 L 31.234375 -2.015625 C 30.929688 -1.804688 30.507812 -1.535156 29.96875 -1.203125 C 29.425781 -0.878906 28.1875 -0.4375 26.25 0.125 C 24.3125 0.695312 22.234375 0.984375 20.015625 0.984375 C 15.109375 0.984375 10.796875 -0.742188 7.078125 -4.203125 C 3.359375 -7.660156 1.5 -11.800781 1.5 -16.625 C 1.5 -21.5 3.359375 -25.6875 7.078125 -29.1875 C 10.796875 -32.6875 15.109375 -34.4375 20.015625 -34.4375 C 22.234375 -34.4375 24.273438 -34.175781 26.140625 -33.65625 C 28.015625 -33.132812 29.34375 -32.613281 30.125 -32.09375 L 31.234375 -31.3125 L 27.328125 -23.40625 C 25.890625 -24.457031 24.019531 -24.984375 21.71875 -24.984375 Z M 21.71875 -24.984375 "/></g></g></g><g fill="#ffffff" fill-opacity="1"><g transform="translate(205.783771, 204.621579)"><g><path d="M 21.71875 -24.984375 C 19.539062 -24.984375 17.671875 -24.175781 16.109375 -22.5625 C 14.546875 -20.957031 13.765625 -19.023438 13.765625 -16.765625 C 13.765625 -14.453125 14.546875 -12.492188 16.109375 -10.890625 C 17.671875 -9.285156 19.539062 -8.484375 21.71875 -8.484375 C 22.757812 -8.484375 23.75 -8.613281 24.6875 -8.875 C 25.625 -9.132812 26.304688 -9.394531 26.734375 -9.65625 L 27.328125 -10.046875 L 31.234375 -2.015625 C 30.929688 -1.804688 30.507812 -1.535156 29.96875 -1.203125 C 29.425781 -0.878906 28.1875 -0.4375 26.25 0.125 C 24.3125 0.695312 22.234375 0.984375 20.015625 0.984375 C 15.109375 0.984375 10.796875 -0.742188 7.078125 -4.203125 C 3.359375 -7.660156 1.5 -11.800781 1.5 -16.625 C 1.5 -21.5 3.359375 -25.6875 7.078125 -29.1875 C 10.796875 -32.6875 15.109375 -34.4375 20.015625 -34.4375 C 22.234375 -34.4375 24.273438 -34.175781 26.140625 -33.65625 C 28.015625 -33.132812 29.34375 -32.613281 30.125 -32.09375 L 31.234375 -31.3125 L 27.328125 -23.40625 C 25.890625 -24.457031 24.019531 -24.984375 21.71875 -24.984375 Z M 21.71875 -24.984375 "/></g></g></g><g fill="#ffffff" fill-opacity="1"><g transform="translate(231.668382, 204.621579)"><g><path d="M 5.015625 -52.109375 C 6.367188 -53.453125 7.976562 -54.125 9.84375 -54.125 C 11.71875 -54.125 13.328125 -53.453125 14.671875 -52.109375 C 16.023438 -50.765625 16.703125 -49.15625 16.703125 -47.28125 C 16.703125 -45.414062 16.023438 -43.804688 14.671875 -42.453125 C 13.328125 -41.109375 11.71875 -40.4375 9.84375 -40.4375 C 7.976562 -40.4375 6.367188 -41.109375 5.015625 -42.453125 C 3.671875 -43.804688 3 -45.414062 3 -47.28125 C 3 -49.15625 3.671875 -50.765625 5.015625 -52.109375 Z M 3.90625 -33.453125 L 3.90625 0 L 15.453125 0 L 15.453125 -33.453125 Z M 3.90625 -33.453125 "/></g></g></g><g fill="#ffffff" fill-opacity="1"><g transform="translate(245.229608, 204.621579)"><g/></g></g><g fill="#ffffff" fill-opacity="1"><g transform="translate(256.899948, 204.621579)"><g><path d="M 11.34375 -13.953125 C 13.4375 -13.953125 15.207031 -13.222656 16.65625 -11.765625 C 18.113281 -10.316406 18.84375 -8.546875 18.84375 -6.453125 C 18.84375 -4.410156 18.113281 -2.660156 16.65625 -1.203125 C 15.207031 0.253906 13.4375 0.984375 11.34375 0.984375 C 9.300781 0.984375 7.550781 0.253906 6.09375 -1.203125 C 4.632812 -2.660156 3.90625 -4.410156 3.90625 -6.453125 C 3.90625 -8.546875 4.632812 -10.316406 6.09375 -11.765625 C 7.550781 -13.222656 9.300781 -13.953125 11.34375 -13.953125 Z M 11.34375 -13.953125 "/></g></g></g></svg>